<svg width="343" height="50" viewBox="0 0 343 50" fill="none" xmlns="http://www.w3.org/2000/svg">
<rect x="0.5" y="0.5" width="342" height="49" rx="24.5" fill="#1F1F1F"/>
<rect x="0.5" y="0.5" width="342" height="49" rx="24.5" stroke="#747775"/>
<path d="M51 22H21V17C21 14.2857 23.2018 12 25.8165 12H46.1835C48.7982 12 51 14.2857 51 17V22Z" fill="#34A853"/>
<path d="M51 26.0537H21V21.0537C21 18.3394 23.2018 16.0537 25.8165 16.0537H46.1835C48.7982 16.0537 51 18.3394 51 21.0537V26.0537Z" fill="#FBBC04"/>
<path d="M51 30.2468H21V25.2468C21 22.5325 23.2018 20.2468 25.8165 20.2468H46.1835C48.7982 20.2468 51 22.5325 51 25.2468V30.2468Z" fill="#EA4335"/>
<path d="M21 23.2752L40.0411 27.6789C42.2329 28.2294 44.6986 27.6789 46.4795 26.3028L51 23V33.3211C51 35.9358 48.8082 38 46.2055 38H25.7945C23.1918 38 21 35.9358 21 33.3211V23.2752Z" fill="#4285F4"/>
<path d="M63.08 36.6L62.5 35.08C63.8467 34.6533 64.88 34.1467 65.6 33.56C66.3333 32.9733 66.8333 32.36 67.1 31.72C67.38 31.0667 67.52 30.4467 67.52 29.86C67.52 29.4867 67.48 29.1267 67.4 28.78C67.32 28.4333 67.18 28.04 66.98 27.6C66.78 27.16 66.5 26.6133 66.14 25.96L67.6 25.22C68.1067 26.0867 68.4667 26.9067 68.68 27.68C68.9067 28.4533 69.02 29.1333 69.02 29.72C69.02 30.56 68.88 31.32 68.6 32C68.3333 32.68 67.9733 33.28 67.52 33.8C67.08 34.3333 66.5933 34.7867 66.06 35.16C65.54 35.5333 65.0133 35.84 64.48 36.08C63.96 36.32 63.4933 36.4933 63.08 36.6ZM71.0438 31.1L71.8438 29.72C72.1104 29.9067 72.4838 30.08 72.9638 30.24C73.4438 30.3867 74.0038 30.46 74.6438 30.46C75.6304 30.46 76.3304 30.3133 76.7438 30.02C77.1571 29.7133 77.3638 29.2933 77.3638 28.76C77.3638 28.4933 77.3038 28.1667 77.1838 27.78C77.0771 27.38 76.8371 26.8467 76.4638 26.18C76.0904 25.5 75.5171 24.6133 74.7438 23.52L76.1238 22.62C77.1771 24.0867 77.9171 25.3333 78.3438 26.36C78.7704 27.3867 78.9838 28.22 78.9838 28.86C78.9838 29.4067 78.8504 29.9267 78.5838 30.42C78.3171 30.9133 77.8704 31.32 77.2438 31.64C76.6171 31.96 75.7504 32.12 74.6438 32.12C73.9104 32.12 73.2304 32.0333 72.6038 31.86C71.9771 31.6733 71.4571 31.42 71.0438 31.1ZM88.583 32C87.5963 32 86.7763 31.7467 86.123 31.24C85.4696 30.72 85.143 29.92 85.143 28.84C85.143 28.3067 85.3296 27.6467 85.703 26.86C86.0896 26.06 86.7563 25.22 87.703 24.34L87.123 23.82L88.163 22.58C88.8563 23.1267 89.4963 23.7133 90.083 24.34C90.6696 24.9667 91.143 25.6333 91.503 26.34C91.863 27.0467 92.043 27.7933 92.043 28.58C92.043 28.8867 91.9896 29.2333 91.883 29.62C91.7763 30.0067 91.5963 30.3867 91.343 30.76C91.0896 31.12 90.7363 31.42 90.283 31.66C89.8296 31.8867 89.263 32 88.583 32ZM88.583 30.36C89.2496 30.36 89.7563 30.1933 90.103 29.86C90.4496 29.5133 90.623 29.06 90.623 28.5C90.623 28.1933 90.5763 27.8733 90.483 27.54C90.3896 27.2067 90.203 26.8467 89.923 26.46C89.643 26.06 89.223 25.62 88.663 25.14C88.0496 25.74 87.5696 26.36 87.223 27C86.8896 27.64 86.723 28.2 86.723 28.68C86.723 29.24 86.8963 29.66 87.243 29.94C87.603 30.22 88.0496 30.36 88.583 30.36ZM96.9484 30.46C97.9351 30.46 98.6351 30.3133 99.0484 30.02C99.4618 29.7133 99.6684 29.2933 99.6684 28.76C99.6684 28.4133 99.5484 27.9667 99.3084 27.42C99.0684 26.8733 98.7484 26.2667 98.3484 25.6C97.9618 24.92 97.5284 24.2267 97.0484 23.52L98.4284 22.62C99.2018 23.8067 99.8284 24.8933 100.308 25.88C100.802 26.8533 101.168 27.7333 101.408 28.52C101.595 29.1067 101.802 29.54 102.028 29.82C102.268 30.1 102.515 30.28 102.768 30.36C103.022 30.4267 103.255 30.46 103.468 30.46C103.748 30.46 103.955 30.54 104.088 30.7C104.222 30.8467 104.288 31.0267 104.288 31.24C104.288 31.4533 104.195 31.6533 104.008 31.84C103.822 32.0133 103.582 32.1 103.288 32.1C102.768 32.1 102.268 31.9867 101.788 31.76C101.308 31.5333 100.922 31.1467 100.628 30.6C100.362 31.04 99.9351 31.4067 99.3484 31.7C98.7751 31.98 97.9751 32.12 96.9484 32.12C96.2151 32.12 95.5351 32.0333 94.9084 31.86C94.2818 31.6733 93.7618 31.42 93.3484 31.1L94.1484 29.72C94.4151 29.9067 94.7884 30.08 95.2684 30.24C95.7484 30.3867 96.3084 30.46 96.9484 30.46ZM110.993 32.16C109.833 32.16 108.7 31.8533 107.593 31.24C106.953 31.52 106.26 31.7333 105.513 31.88C104.78 32.0267 104.04 32.1 103.293 32.1L103.493 30.46C104.013 30.46 104.493 30.4333 104.933 30.38C105.373 30.3267 105.773 30.2467 106.133 30.14C105.76 29.7533 105.453 29.32 105.213 28.84C104.986 28.3467 104.873 27.8133 104.873 27.24C104.873 26.48 105.073 25.7933 105.473 25.18C105.886 24.5667 106.44 24.1667 107.133 23.98C106.826 23.74 106.5 23.5 106.153 23.26L107.093 22.02C108.373 22.9533 109.426 23.78 110.253 24.5C111.093 25.2067 111.753 25.8267 112.233 26.36C112.726 26.88 113.086 27.34 113.313 27.74C113.553 28.1267 113.706 28.4733 113.773 28.78C113.84 29.0867 113.873 29.3667 113.873 29.62C113.873 30.06 113.773 30.4733 113.573 30.86C113.386 31.2467 113.08 31.56 112.653 31.8C112.24 32.04 111.686 32.16 110.993 32.16ZM106.373 27.04C106.373 27.5467 106.5 28.0067 106.753 28.42C107.006 28.8333 107.326 29.1933 107.713 29.5C108.313 29.1267 108.726 28.7067 108.953 28.24C109.193 27.7733 109.313 27.36 109.313 27C109.313 26.5733 109.186 26.1867 108.933 25.84C108.693 25.48 108.353 25.3 107.913 25.3C107.46 25.3 107.086 25.48 106.793 25.84C106.513 26.2 106.373 26.6 106.373 27.04ZM110.793 27.24C110.793 27.8533 110.646 28.42 110.353 28.94C110.073 29.4467 109.693 29.8933 109.213 30.28C109.8 30.48 110.366 30.58 110.913 30.58C111.366 30.58 111.7 30.5067 111.913 30.36C112.126 30.2 112.233 29.94 112.233 29.58C112.233 29.5 112.213 29.3667 112.173 29.18C112.146 28.9933 112.033 28.7333 111.833 28.4C111.633 28.0533 111.286 27.62 110.793 27.1C110.793 27.14 110.793 27.1867 110.793 27.24ZM120.597 32.1C119.517 32.1 118.697 31.98 118.137 31.74C117.577 31.5 117.191 31.1267 116.977 30.62C116.764 30.1133 116.644 29.46 116.617 28.66L116.217 17.72H117.857L118.257 28.02C118.284 28.6733 118.344 29.18 118.437 29.54C118.544 29.8867 118.771 30.1267 119.117 30.26C119.477 30.3933 120.037 30.46 120.797 30.46C121.077 30.46 121.277 30.54 121.397 30.7C121.531 30.8467 121.597 31.0267 121.597 31.24C121.597 31.4533 121.504 31.6533 121.317 31.84C121.131 32.0133 120.891 32.1 120.597 32.1ZM120.598 32.1L120.798 30.46C121.224 30.46 121.571 30.4333 121.838 30.38C122.104 30.3133 122.324 30.16 122.498 29.92C122.684 29.6667 122.858 29.2733 123.018 28.74C123.178 28.2067 123.364 27.46 123.578 26.5L125.078 26.92C124.998 27.2667 124.904 27.6733 124.798 28.14C124.691 28.6067 124.638 29.0267 124.638 29.4C124.638 29.7333 124.764 29.9933 125.018 30.18C125.271 30.3667 125.731 30.46 126.398 30.46C126.798 30.46 127.124 30.4267 127.378 30.36C127.631 30.2933 127.838 30.1333 127.998 29.88C128.171 29.6267 128.324 29.2267 128.458 28.68C128.591 28.12 128.731 27.3467 128.878 26.36L130.398 26.64C130.358 26.88 130.304 27.1733 130.238 27.52C130.184 27.8667 130.138 28.2133 130.098 28.56C130.058 28.8933 130.038 29.1733 130.038 29.4C130.038 29.5867 130.078 29.7667 130.158 29.94C130.251 30.1 130.424 30.2267 130.678 30.32C130.944 30.4133 131.338 30.46 131.858 30.46C132.524 30.46 133.004 30.3267 133.298 30.06C133.604 29.78 133.758 29.3467 133.758 28.76C133.758 28.3067 133.744 27.8067 133.718 27.26C133.691 26.7133 133.624 26.0267 133.518 25.2L134.978 25.1C135.058 26.18 135.144 27.0667 135.238 27.76C135.344 28.4533 135.491 29 135.678 29.4C135.878 29.7867 136.144 30.06 136.478 30.22C136.811 30.38 137.251 30.46 137.798 30.46C138.078 30.46 138.278 30.54 138.398 30.7C138.531 30.8467 138.598 31.0267 138.598 31.24C138.598 31.4533 138.504 31.6533 138.318 31.84C138.131 32.0133 137.891 32.1 137.598 32.1C136.851 32.1 136.231 31.9333 135.738 31.6C135.258 31.2667 134.904 30.8467 134.678 30.34C134.411 31.0467 134.004 31.52 133.458 31.76C132.924 31.9867 132.331 32.1 131.678 32.1C130.998 32.1 130.458 32.0067 130.058 31.82C129.671 31.62 129.384 31.32 129.198 30.92C128.878 31.4 128.491 31.72 128.038 31.88C127.598 32.0267 126.971 32.1 126.158 32.1C125.878 32.1 125.578 32.0667 125.258 32C124.951 31.9333 124.664 31.8067 124.398 31.62C124.131 31.42 123.924 31.1267 123.778 30.74C123.431 31.3267 122.998 31.7 122.478 31.86C121.971 32.02 121.344 32.1 120.598 32.1ZM129.218 21.1C128.938 21.1 128.698 21.0067 128.498 20.82C128.311 20.62 128.218 20.3867 128.218 20.12C128.218 19.8533 128.311 19.62 128.498 19.42C128.698 19.22 128.938 19.12 129.218 19.12C129.484 19.12 129.711 19.22 129.898 19.42C130.098 19.62 130.198 19.8533 130.198 20.12C130.198 20.3867 130.098 20.62 129.898 20.82C129.711 21.0067 129.484 21.1 129.218 21.1ZM127.858 23.3C127.578 23.3 127.338 23.2067 127.138 23.02C126.951 22.82 126.858 22.5867 126.858 22.32C126.858 22.0533 126.951 21.82 127.138 21.62C127.338 21.42 127.578 21.32 127.858 21.32C128.124 21.32 128.351 21.42 128.538 21.62C128.738 21.82 128.838 22.0533 128.838 22.32C128.838 22.5867 128.738 22.82 128.538 23.02C128.351 23.2067 128.124 23.3 127.858 23.3ZM130.578 23.3C130.298 23.3 130.058 23.2067 129.858 23.02C129.671 22.82 129.578 22.5867 129.578 22.32C129.578 22.0533 129.671 21.82 129.858 21.62C130.058 21.42 130.298 21.32 130.578 21.32C130.844 21.32 131.071 21.42 131.258 21.62C131.458 21.82 131.558 22.0533 131.558 22.32C131.558 22.5867 131.458 22.82 131.258 23.02C131.071 23.2067 130.844 23.3 130.578 23.3ZM137.59 32.1L137.79 30.46C138.163 30.46 138.477 30.38 138.73 30.22C138.983 30.06 139.23 29.8 139.47 29.44C139.71 29.0667 139.97 28.56 140.25 27.92C140.637 27.0667 141.017 26.42 141.39 25.98C141.777 25.54 142.157 25.24 142.53 25.08C142.917 24.92 143.297 24.84 143.67 24.84C144.123 24.84 144.543 24.96 144.93 25.2C145.317 25.4267 145.657 25.7333 145.95 26.12C146.243 26.5067 146.47 26.9333 146.63 27.4C146.803 27.8533 146.89 28.3067 146.89 28.76C146.89 29.56 146.75 30.2 146.47 30.68C146.19 31.1467 145.83 31.4867 145.39 31.7C144.963 31.9 144.517 32 144.05 32C143.663 32 143.17 31.9333 142.57 31.8C141.983 31.6667 141.243 31.32 140.35 30.76C139.923 31.3733 139.497 31.7533 139.07 31.9C138.643 32.0333 138.15 32.1 137.59 32.1ZM141.33 28.98C141.25 29.1533 141.177 29.32 141.11 29.48C141.683 29.8133 142.203 30.0467 142.67 30.18C143.15 30.3 143.55 30.36 143.87 30.36C144.443 30.36 144.85 30.2333 145.09 29.98C145.33 29.7267 145.45 29.3933 145.45 28.98C145.45 28.5933 145.357 28.2067 145.17 27.82C144.983 27.4333 144.743 27.1133 144.45 26.86C144.17 26.6067 143.87 26.48 143.55 26.48C143.31 26.48 143.077 26.5467 142.85 26.68C142.623 26.8133 142.39 27.06 142.15 27.42C141.91 27.78 141.637 28.3 141.33 28.98Z" fill="white"/>
<path d="M158.9 31.04L154.78 26.58L158.9 22.12L160.16 23.26L157.04 26.58L160.16 29.9L158.9 31.04ZM163.12 31.04L159 26.58L163.12 22.12L164.38 23.26L161.26 26.58L164.38 29.9L163.12 31.04ZM173.982 32.32C172.955 32.32 171.989 32.1333 171.082 31.76C170.175 31.3867 169.375 30.8667 168.682 30.2C168.002 29.52 167.462 28.7267 167.062 27.82C166.675 26.9 166.482 25.9067 166.482 24.84C166.482 23.7733 166.675 22.7867 167.062 21.88C167.462 20.96 168.002 20.1667 168.682 19.5C169.375 18.82 170.175 18.2933 171.082 17.92C171.989 17.5467 172.955 17.36 173.982 17.36C175.075 17.36 176.082 17.5533 177.002 17.94C177.935 18.3267 178.715 18.8667 179.342 19.56L177.822 21.06C177.515 20.7133 177.162 20.42 176.762 20.18C176.375 19.94 175.949 19.76 175.482 19.64C175.015 19.5067 174.515 19.44 173.982 19.44C173.275 19.44 172.602 19.5667 171.962 19.82C171.322 20.0733 170.755 20.44 170.262 20.92C169.782 21.3867 169.402 21.9533 169.122 22.62C168.842 23.2733 168.702 24.0133 168.702 24.84C168.702 25.6667 168.842 26.4133 169.122 27.08C169.415 27.7333 169.802 28.3 170.282 28.78C170.775 29.2467 171.342 29.6067 171.982 29.86C172.622 30.1133 173.295 30.24 174.002 30.24C174.655 30.24 175.262 30.1467 175.822 29.96C176.395 29.7733 176.895 29.5067 177.322 29.16C177.749 28.8133 178.095 28.3933 178.362 27.9C178.629 27.3933 178.795 26.8267 178.862 26.2H173.962V24.26H180.922C180.949 24.42 180.975 24.6067 181.002 24.82C181.029 25.02 181.042 25.2133 181.042 25.4V25.42C181.042 26.4467 180.862 27.3867 180.502 28.24C180.155 29.0933 179.669 29.8267 179.042 30.44C178.415 31.04 177.669 31.5067 176.802 31.84C175.949 32.16 175.009 32.32 173.982 32.32ZM187.482 32.32C186.429 32.32 185.502 32.08 184.702 31.6C183.902 31.12 183.275 30.4733 182.822 29.66C182.369 28.8333 182.142 27.9133 182.142 26.9C182.142 25.8867 182.369 24.9733 182.822 24.16C183.275 23.3333 183.902 22.68 184.702 22.2C185.502 21.72 186.429 21.48 187.482 21.48C188.522 21.48 189.442 21.7267 190.242 22.22C191.042 22.7 191.669 23.3467 192.122 24.16C192.575 24.9733 192.802 25.8867 192.802 26.9C192.802 27.9133 192.575 28.8333 192.122 29.66C191.669 30.4733 191.042 31.12 190.242 31.6C189.442 32.08 188.522 32.32 187.482 32.32ZM187.482 30.34C188.042 30.34 188.562 30.2067 189.042 29.94C189.522 29.66 189.909 29.2667 190.202 28.76C190.509 28.24 190.662 27.62 190.662 26.9C190.662 26.18 190.509 25.5667 190.202 25.06C189.909 24.54 189.522 24.1467 189.042 23.88C188.562 23.6 188.042 23.46 187.482 23.46C186.922 23.46 186.395 23.6 185.902 23.88C185.422 24.1467 185.029 24.54 184.722 25.06C184.429 25.5667 184.282 26.18 184.282 26.9C184.282 27.62 184.429 28.24 184.722 28.76C185.029 29.2667 185.429 29.66 185.922 29.94C186.415 30.2067 186.935 30.34 187.482 30.34ZM199.591 32.32C198.538 32.32 197.611 32.08 196.811 31.6C196.011 31.12 195.385 30.4733 194.931 29.66C194.478 28.8333 194.251 27.9133 194.251 26.9C194.251 25.8867 194.478 24.9733 194.931 24.16C195.385 23.3333 196.011 22.68 196.811 22.2C197.611 21.72 198.538 21.48 199.591 21.48C200.631 21.48 201.551 21.7267 202.351 22.22C203.151 22.7 203.778 23.3467 204.231 24.16C204.685 24.9733 204.911 25.8867 204.911 26.9C204.911 27.9133 204.685 28.8333 204.231 29.66C203.778 30.4733 203.151 31.12 202.351 31.6C201.551 32.08 200.631 32.32 199.591 32.32ZM199.591 30.34C200.151 30.34 200.671 30.2067 201.151 29.94C201.631 29.66 202.018 29.2667 202.311 28.76C202.618 28.24 202.771 27.62 202.771 26.9C202.771 26.18 202.618 25.5667 202.311 25.06C202.018 24.54 201.631 24.1467 201.151 23.88C200.671 23.6 200.151 23.46 199.591 23.46C199.031 23.46 198.505 23.6 198.011 23.88C197.531 24.1467 197.138 24.54 196.831 25.06C196.538 25.5667 196.391 26.18 196.391 26.9C196.391 27.62 196.538 28.24 196.831 28.76C197.138 29.2667 197.538 29.66 198.031 29.94C198.525 30.2067 199.045 30.34 199.591 30.34ZM211.501 36.64C210.607 36.64 209.834 36.4933 209.181 36.2C208.541 35.92 208.021 35.5533 207.621 35.1C207.221 34.66 206.934 34.2067 206.761 33.74L208.761 32.9C208.974 33.4333 209.314 33.8667 209.781 34.2C210.261 34.5467 210.834 34.72 211.501 34.72C212.447 34.72 213.187 34.44 213.721 33.88C214.254 33.32 214.521 32.5267 214.521 31.5V30.52H214.401C214.081 30.9867 213.641 31.3667 213.081 31.66C212.521 31.9533 211.874 32.1 211.141 32.1C210.274 32.1 209.474 31.88 208.741 31.44C208.021 31 207.441 30.3867 207.001 29.6C206.574 28.8 206.361 27.8667 206.361 26.8C206.361 25.72 206.574 24.7867 207.001 24C207.441 23.2 208.021 22.58 208.741 22.14C209.474 21.7 210.274 21.48 211.141 21.48C211.874 21.48 212.521 21.6267 213.081 21.92C213.641 22.2 214.081 22.5867 214.401 23.08H214.521V21.8H216.581V31.46C216.581 32.5667 216.361 33.5067 215.921 34.28C215.494 35.0533 214.901 35.64 214.141 36.04C213.381 36.44 212.501 36.64 211.501 36.64ZM211.521 30.14C212.054 30.14 212.547 30.0133 213.001 29.76C213.467 29.4933 213.834 29.1133 214.101 28.62C214.381 28.1133 214.521 27.5067 214.521 26.8C214.521 26.0533 214.381 25.4333 214.101 24.94C213.834 24.4467 213.467 24.0733 213.001 23.82C212.547 23.5667 212.054 23.44 211.521 23.44C210.987 23.44 210.487 23.5667 210.021 23.82C209.567 24.0733 209.201 24.4533 208.921 24.96C208.641 25.4533 208.501 26.0667 208.501 26.8C208.501 27.52 208.641 28.1333 208.921 28.64C209.201 29.1333 209.567 29.5067 210.021 29.76C210.487 30.0133 210.987 30.14 211.521 30.14ZM219.128 32V17.68H221.288V32H219.128ZM228.397 32.32C227.397 32.32 226.503 32.0867 225.717 31.62C224.93 31.1533 224.31 30.5133 223.857 29.7C223.417 28.8867 223.197 27.96 223.197 26.92C223.197 25.9467 223.41 25.0467 223.837 24.22C224.263 23.3933 224.857 22.7333 225.617 22.24C226.39 21.7333 227.277 21.48 228.277 21.48C229.33 21.48 230.223 21.7067 230.957 22.16C231.703 22.6133 232.27 23.2333 232.657 24.02C233.043 24.8067 233.237 25.6933 233.237 26.68C233.237 26.8267 233.23 26.96 233.217 27.08C233.217 27.2 233.21 27.2933 233.197 27.36H225.317C225.37 27.92 225.51 28.4067 225.737 28.82C226.03 29.34 226.417 29.7333 226.897 30C227.377 30.2667 227.897 30.4 228.457 30.4C229.137 30.4 229.703 30.2467 230.157 29.94C230.623 29.62 230.99 29.2267 231.257 28.76L233.037 29.62C232.597 30.42 231.997 31.0733 231.237 31.58C230.477 32.0733 229.53 32.32 228.397 32.32ZM225.437 25.74H231.097C231.083 25.4867 231.017 25.22 230.897 24.94C230.777 24.6467 230.603 24.38 230.377 24.14C230.15 23.9 229.863 23.7067 229.517 23.56C229.17 23.4 228.763 23.32 228.297 23.32C227.71 23.32 227.19 23.4733 226.737 23.78C226.283 24.0733 225.93 24.4867 225.677 25.02C225.57 25.2467 225.49 25.4867 225.437 25.74ZM239.248 32.02C239.248 31.54 239.315 31.0067 239.448 30.42C239.582 29.8333 239.795 29.1867 240.088 28.48L241.528 29.04C241.315 29.6 241.155 30.1133 241.048 30.58C240.942 31.0467 240.888 31.48 240.888 31.88C240.888 32.8533 241.255 33.6133 241.988 34.16C242.735 34.72 243.708 35 244.908 35C246.202 35 247.202 34.7467 247.908 34.24C248.615 33.7467 249.095 32.9867 249.348 31.96C249.602 30.92 249.695 29.5933 249.628 27.98L249.248 17.72H250.908L251.248 28.4C251.288 29.52 251.215 30.58 251.028 31.58C250.855 32.5667 250.528 33.44 250.048 34.2C249.582 34.96 248.922 35.5533 248.068 35.98C247.228 36.42 246.155 36.64 244.848 36.64C244.142 36.64 243.455 36.5467 242.788 36.36C242.122 36.1733 241.522 35.8933 240.988 35.52C240.455 35.1467 240.028 34.6667 239.708 34.08C239.402 33.5067 239.248 32.82 239.248 32.02ZM253.715 36.6L253.355 34.96C254.181 34.8533 254.935 34.6933 255.615 34.48C256.308 34.28 256.901 33.9933 257.395 33.62C257.888 33.2467 258.255 32.74 258.495 32.1H257.215C256.615 32.1 256.055 32.02 255.535 31.86C255.028 31.6867 254.615 31.4133 254.295 31.04C253.988 30.6667 253.835 30.18 253.835 29.58C253.835 28.8467 253.981 28.1533 254.275 27.5C254.568 26.8333 254.968 26.2933 255.475 25.88C255.981 25.4667 256.555 25.26 257.195 25.26C258.115 25.26 258.875 25.6667 259.475 26.48C260.088 27.28 260.395 28.5133 260.395 30.18C260.395 30.2733 260.395 30.3667 260.395 30.46H262.195C262.475 30.46 262.675 30.54 262.795 30.7C262.928 30.8467 262.995 31.0267 262.995 31.24C262.995 31.4533 262.901 31.6533 262.715 31.84C262.528 32.0133 262.288 32.1 261.995 32.1H260.155C259.475 34.6867 257.328 36.1867 253.715 36.6ZM257.975 30.46H258.815C258.828 30.3267 258.835 30.1933 258.835 30.06C258.835 29.1533 258.668 28.4 258.335 27.8C258.001 27.2 257.568 26.9 257.035 26.9C256.755 26.9 256.488 27.0067 256.235 27.22C255.995 27.4333 255.801 27.72 255.655 28.08C255.508 28.44 255.435 28.8333 255.435 29.26C255.435 29.7267 255.641 30.0467 256.055 30.22C256.481 30.38 257.121 30.46 257.975 30.46ZM261.988 32.1L262.188 30.46C262.962 30.46 263.568 30.4333 264.008 30.38C264.462 30.3133 264.782 30.16 264.968 29.92C265.155 29.68 265.248 29.2867 265.248 28.74C265.248 28.2467 265.128 27.6133 264.888 26.84C264.662 26.0667 264.402 25.3 264.108 24.54L265.728 23.94C265.902 24.38 266.062 24.8733 266.208 25.42C266.368 25.9533 266.502 26.4867 266.608 27.02C266.715 27.5533 266.768 28.02 266.768 28.42C266.768 29.7667 266.395 30.72 265.648 31.28C264.902 31.8267 263.682 32.1 261.988 32.1ZM262.888 35.88C262.608 35.88 262.368 35.78 262.168 35.58C261.982 35.3933 261.888 35.1667 261.888 34.9C261.888 34.6333 261.982 34.4 262.168 34.2C262.368 34 262.608 33.9 262.888 33.9C263.155 33.9 263.382 34 263.568 34.2C263.768 34.4 263.868 34.6333 263.868 34.9C263.868 35.1667 263.768 35.3933 263.568 35.58C263.382 35.78 263.155 35.88 262.888 35.88ZM265.608 35.88C265.328 35.88 265.088 35.78 264.888 35.58C264.702 35.3933 264.608 35.1667 264.608 34.9C264.608 34.6333 264.702 34.4 264.888 34.2C265.088 34 265.328 33.9 265.608 33.9C265.875 33.9 266.102 34 266.288 34.2C266.488 34.4 266.588 34.6333 266.588 34.9C266.588 35.1667 266.488 35.3933 266.288 35.58C266.102 35.78 265.875 35.88 265.608 35.88ZM264.248 38.08C263.968 38.08 263.728 37.98 263.528 37.78C263.342 37.5933 263.248 37.3667 263.248 37.1C263.248 36.8333 263.342 36.6 263.528 36.4C263.728 36.2 263.968 36.1 264.248 36.1C264.515 36.1 264.742 36.2 264.928 36.4C265.128 36.6 265.228 36.8333 265.228 37.1C265.228 37.3667 265.128 37.5933 264.928 37.78C264.742 37.98 264.515 38.08 264.248 38.08ZM280.433 32.42C278.059 32.42 276.266 32.1133 275.053 31.5C273.839 30.8733 273.233 29.8267 273.233 28.36C273.233 27.8667 273.293 27.3467 273.413 26.8C273.533 26.24 273.659 25.7133 273.793 25.22L275.293 25.6C275.213 25.8933 275.119 26.2667 275.013 26.72C274.919 27.1733 274.873 27.5667 274.873 27.9C274.873 28.5933 275.046 29.1533 275.393 29.58C275.753 29.9933 276.373 30.3 277.253 30.5C278.133 30.6867 279.366 30.78 280.953 30.78C282.419 30.78 283.733 30.74 284.893 30.66C286.053 30.5667 286.993 30.46 287.713 30.34C287.393 30.0733 287.079 29.7133 286.773 29.26C286.466 28.7933 286.313 28.2267 286.313 27.56C286.313 26.84 286.473 26.1933 286.793 25.62C287.126 25.0333 287.559 24.5667 288.093 24.22C288.626 23.8733 289.199 23.7 289.813 23.7C290.466 23.7 291.039 23.8867 291.533 24.26C292.026 24.62 292.406 25.0867 292.673 25.66C292.953 26.2333 293.093 26.8133 293.093 27.4C293.093 28.0267 292.966 28.5867 292.713 29.08C292.459 29.56 292.113 29.98 291.673 30.34C292.219 30.38 292.773 30.4133 293.333 30.44C293.893 30.4533 294.379 30.46 294.793 30.46C295.073 30.46 295.273 30.54 295.393 30.7C295.526 30.8467 295.593 31.0267 295.593 31.24C295.593 31.4533 295.499 31.6533 295.313 31.84C295.126 32.0133 294.886 32.1 294.593 32.1C292.873 32.1 291.259 31.88 289.753 31.44C289.539 31.52 289.313 31.5933 289.073 31.66C288.673 31.78 288.033 31.9 287.153 32.02C286.286 32.14 285.266 32.2333 284.093 32.3C282.933 32.38 281.713 32.42 280.433 32.42ZM287.953 27.6C287.953 28.1333 288.119 28.5867 288.453 28.96C288.799 29.32 289.179 29.6133 289.593 29.84C290.113 29.6 290.553 29.2933 290.913 28.92C291.273 28.5333 291.453 28.0667 291.453 27.52C291.453 27.2267 291.379 26.9133 291.233 26.58C291.086 26.2333 290.879 25.94 290.613 25.7C290.359 25.46 290.073 25.34 289.753 25.34C289.433 25.34 289.133 25.4533 288.853 25.68C288.586 25.9067 288.366 26.1933 288.193 26.54C288.033 26.8867 287.953 27.24 287.953 27.6ZM289.633 21.64C289.353 21.64 289.113 21.5467 288.913 21.36C288.726 21.16 288.633 20.9267 288.633 20.66C288.633 20.3933 288.726 20.16 288.913 19.96C289.113 19.76 289.353 19.66 289.633 19.66C289.899 19.66 290.126 19.76 290.313 19.96C290.513 20.16 290.613 20.3933 290.613 20.66C290.613 20.9267 290.513 21.16 290.313 21.36C290.126 21.5467 289.899 21.64 289.633 21.64ZM294.586 32.1L294.786 30.46C295.453 30.46 295.973 30.4133 296.346 30.32C296.719 30.2133 296.999 30.02 297.186 29.74C297.386 29.4467 297.546 29.0267 297.666 28.48C297.786 27.9333 297.933 27.22 298.106 26.34L299.666 26.64C299.586 27 299.493 27.4133 299.386 27.88C299.293 28.3467 299.246 28.74 299.246 29.06C299.246 29.26 299.259 29.4467 299.286 29.62C299.313 29.7933 299.413 29.94 299.586 30.06C299.759 30.18 300.053 30.28 300.466 30.36C300.879 30.4267 301.473 30.46 302.246 30.46C302.526 30.46 302.726 30.54 302.846 30.7C302.979 30.8467 303.046 31.0267 303.046 31.24C303.046 31.4533 302.953 31.6533 302.766 31.84C302.579 32.0133 302.339 32.1 302.046 32.1C301.179 32.1 300.499 32.0533 300.006 31.96C299.526 31.8533 299.166 31.7067 298.926 31.52C298.699 31.32 298.533 31.0733 298.426 30.78C298.039 31.3267 297.559 31.6867 296.986 31.86C296.426 32.02 295.626 32.1 294.586 32.1ZM299.626 35.88C299.346 35.88 299.106 35.78 298.906 35.58C298.719 35.3933 298.626 35.1667 298.626 34.9C298.626 34.6333 298.719 34.4 298.906 34.2C299.106 34 299.346 33.9 299.626 33.9C299.893 33.9 300.119 34 300.306 34.2C300.506 34.4 300.606 34.6333 300.606 34.9C300.606 35.1667 300.506 35.3933 300.306 35.58C300.119 35.78 299.893 35.88 299.626 35.88ZM296.886 35.88C296.606 35.88 296.366 35.78 296.166 35.58C295.979 35.3933 295.886 35.1667 295.886 34.9C295.886 34.6333 295.979 34.4 296.166 34.2C296.366 34 296.606 33.9 296.886 33.9C297.153 33.9 297.379 34 297.566 34.2C297.766 34.4 297.866 34.6333 297.866 34.9C297.866 35.1667 297.766 35.3933 297.566 35.58C297.379 35.78 297.153 35.88 296.886 35.88ZM302.047 32.1L302.247 30.46H304.127C304.9 30.46 305.52 30.42 305.987 30.34C306.454 30.2467 306.794 30.1333 307.007 30C307.234 29.8533 307.38 29.7 307.447 29.54C307.527 29.3667 307.567 29.1933 307.567 29.02C307.567 28.7133 307.447 28.3333 307.207 27.88C306.98 27.4267 306.507 26.84 305.787 26.12C305.294 25.6133 304.8 25.1667 304.307 24.78C303.814 24.3933 303.407 24.0667 303.087 23.8C302.767 23.5333 302.607 23.34 302.607 23.22C302.607 22.9133 302.64 22.6267 302.707 22.36C302.774 22.0933 302.88 21.8867 303.027 21.74C303.56 21.1667 304.394 20.5933 305.527 20.02C306.674 19.4467 308.1 18.7267 309.807 17.86L310.487 19.34C309.274 19.9267 308.28 20.4133 307.507 20.8C306.747 21.1733 306.114 21.5067 305.607 21.8C305.114 22.08 304.654 22.3667 304.227 22.66C305.787 23.9267 306.98 25.0667 307.807 26.08C308.647 27.08 309.067 28.0933 309.067 29.12C309.067 29.4133 309.014 29.7333 308.907 30.08C308.8 30.4267 308.574 30.7533 308.227 31.06C307.88 31.3667 307.36 31.62 306.667 31.82C305.974 32.0067 305.04 32.1 303.867 32.1H302.047ZM312.729 31.04L311.469 29.9L314.589 26.58L311.469 23.26L312.729 22.12L316.849 26.58L312.729 31.04ZM316.949 31.04L315.689 29.9L318.809 26.58L315.689 23.26L316.949 22.12L321.069 26.58L316.949 31.04Z" fill="white"/>
</svg>
